<?xml version="1.0" encoding="utf-8"?>
<!-- Generator: Adobe Illustrator 12.0.0, SVG Export Plug-In . SVG Version: 6.00 Build 51448)  -->
<!DOCTYPE svg PUBLIC "-//W3C//DTD SVG 1.1//EN" "http://www.w3.org/Graphics/SVG/1.1/DTD/svg11.dtd" [
	<!ENTITY ns_svg "http://www.w3.org/2000/svg">
	<!ENTITY ns_xlink "http://www.w3.org/1999/xlink">
]>
<svg  version="1.1" xmlns="&ns_svg;" xmlns:xlink="&ns_xlink;" width="44.5" height="44.5" viewBox="0 0 46 46"
	 overflow="visible" enable-background="new 0 0 44.5 44.5" xml:space="preserve" preserveAspectRatio="xMinYMin meet">
<defs>
  <style>
    :hover #button { fill: #005E9C; }
  </style>
</defs>

<g id="Ebene_1">
	<path id="button" fill-rule="evenodd" clip-rule="evenodd" fill="#A8171C" d="M35.1,14.004c0,1.167,0,1.149,0,1.149s-0.164,0.474-0.576,0.574
		c-0.775-0.017-2.299,0-3.447,0c0-0.191,0-0.574,0-0.574s-0.383,0-0.576,0c0-0.191,0-0.958,0-1.149h0.576v-0.575
		c0.107-0.024,3.447,0,3.447,0S34.936,13.502,35.1,14.004z M34.377,21.435c0,0.012,0.574,0.574,0.574,0.574v1.152
		c0,0-0.598,0.574-0.574,0.574c-0.959,0-3.449,0-3.449,0s0-0.563,0-0.574c-0.604,0,0,0,0,0h-0.574c0,0-0.045-1.142,0-1.152
		c0.09-0.018,0.557,0.019,0.574,0c0-0.287,0-0.287,0-0.574C32.078,21.435,33.227,21.435,34.377,21.435z M34.533,28.947
		c0.592,0.588,0.006,0,0.574,0.576c0.01,1.17-0.012,1.127,0,1.148c0.014-0.004-0.553,0.596-0.574,0.574
		c-1.725-0.002-1.732,0.002-3.449,0c-0.008,0.023,0.004,0.031,0-0.574c-0.01-0.025-0.254,0.012-0.574,0
		c-0.018-0.785-0.006-0.42,0-1.148c0-0.023,0.568,0.008,0.574,0c-0.021-0.01,0.025-0.551,0-0.576
		C32.041,28.947,33.574,28.947,34.533,28.947z M44.375,23.229c0,12.289-9.962,22.25-22.25,22.25s-22.25-9.961-22.25-22.25
		c0-12.288,9.962-22.25,22.25-22.25S44.375,10.941,44.375,23.229z M11.029,14.025c-0.766,0-2.299,0-2.299,0s-0.001,0.562,0,0.574
		c-0.023-0.011-0.012-0.008-0.574,0c0.015,2.909-0.012,0.003,0,2.874c-0.021,0.004,0.564,0.021,0.574,0
		c-0.014-0.009,0,0.575,0,0.575h2.299c0,0-0.018-0.002,0,0.574c-0.023,0,0.002,0.071,0,1.725c-0.766,0-2.299,0-2.299,0
		s0.014,0.032,0,0.574c0.008,0.004-0.574,0-0.574,0s0.002,3.43,0,3.45c0.029-0.002,0.574,0,0.574,0s0.016,0.575,0,0.573
		c2.236-0.023,0.025,0.016,2.299,0c0,0.768,0,1.533,0,2.299c-0.766,0-1.533,0-2.299,0c-0.031,0.176,0,0.576,0,0.576
		s-0.561,0.02-0.574,0c-0.002-0.006,0.012,2.885,0,2.873c0.023,0.004,0.571,0.006,0.574,0c0.008,0,0.007,0.576,0,0.574
		c0.766,0,1.533,0,2.299,0c0.572,3.406,2.875,5.174,2.875,5.174h17.242c0,0-0.016,0.021,1.148-0.574
		c0.582-0.582,0.576-0.576,0.576-0.576s0.012-2.873,0-2.873c-0.02-0.012-1.15,0-1.15,0s-0.01-0.576,0-0.574
		c0.006,0.018-1.15,0-1.15,0s-0.004,0.018,0-0.576c0.002-0.006-0.578,0.023-0.574,0c0.002-0.004,0.023-2.289,0.023-2.289
		s0.551-0.027,0.551-0.01c0-0.035,0-0.574,0-0.574s-0.012,0.02,1.15,0c0.025-0.566-0.008-0.135,0-0.574c0.992,0.016,0.303,0,1.15,0
		c-0.01-1.166-0.012-1.213,0-2.875c-0.727-0.021-0.344-0.002-1.15,0c-0.018-0.34,0.006-0.051,0-0.573
		c-0.613-0.014-0.881,0.002-1.15,0c-0.008-0.264-0.018-0.148,0-0.574c-0.498,0.006,0.041,0.018-0.574,0
		c-0.059-1.307,0-2.301,0-2.301s0.574-0.018,0.574,0c0.02-0.018-0.023-0.539,0-0.575c0.189,0,1.146-0.012,1.15,0
		c-0.021-0.036,0.018-0.176,0-0.574c1.08,0.018,0.576-0.02,1.15,0c0-0.767,0-2.683,0-3.448c0-0.006-1.15,0-1.15,0
		s0.006-0.591,0-0.575c-0.02,0.01-1.146,0-1.15,0c-0.018-0.006-0.012-0.572,0-0.575c-0.018-0.025-0.568-0.006-0.574,0
		c0-0.957,0-1.341,0-2.298c0.004,0.026,0.574,0,0.574,0v-0.575h1.15V12.3c1.131-0.018,0.842-0.016,1.15,0c0-0.383,0-1.149,0-1.149
		s-0.553-1.627-2.301-1.724c-1.73-0.049-17.242,0-17.242,0S11.299,10.828,11.029,14.025z M14.229,13.063c4.598,0,9.195,0,13.793,0
		c0,0.383,0,0.767,0,1.15c-4.598,0-9.195,0-13.793,0C14.229,13.829,14.229,13.446,14.229,13.063z M14.229,16.511
		c4.598,0,9.195,0,13.793,0c0,0.383,0,0.767,0,1.149c-4.598,0-9.195,0-13.793,0C14.229,17.278,14.229,16.894,14.229,16.511z
		 M14.229,19.385c4.598,0,9.195,0,13.793,0c-0.047,0.646-0.023,0.574,0,1.149c-4.213,0-9.58,0-13.793,0
		C14.217,20.391,14.313,19.457,14.229,19.385z M27.447,22.834c0,0.576,0,0.576,0,1.15c-2.873,0-8.621,0-8.621,0s0.034-1.107,0-1.15
		C22.129,22.842,24.373,22.807,27.447,22.834z M14.229,25.708c4.598,0,9.195,0,13.793,0c0,0.574,0,0.574,0,1.148
		c-4.598,0-9.195,0-13.793,0C14.229,26.282,14.229,26.282,14.229,25.708z M16.527,28.581c3.639,0,7.281,0,10.92,0
		c0,0.383,0,0.768,0,1.15c-3.639,0-7.281,0-10.92,0C16.527,29.349,16.527,28.964,16.527,28.581z M14.229,31.454
		c4.406,0,8.813,0,13.219,0c-0.012,1.15-0.023,1.186,0,1.15c-4.215,0-9.006,0-13.219,0C14.229,32.03,14.229,32.03,14.229,31.454z
		 M10.279,17.611"/>
       <a xlink:href="/uindex" target="_top">
               <rect id="button1" x="0" y="0" width="44.5" height="44.5"  fill="rgba(0,0,0,0)" cursor="pointer"  stroke="none" stroke-width="0" />
       </a>
</g>

</svg>
