<?xml version="1.0" encoding="utf-8"?>
<!-- Generator: Adobe Illustrator 19.0.1, SVG Export Plug-In . SVG Version: 6.00 Build 0)  -->
<svg version="1.1" id="Ebene_1" xmlns="http://www.w3.org/2000/svg" xmlns:xlink="http://www.w3.org/1999/xlink" x="0px" y="0px"
	 viewBox="0 0 340.2 226.8" style="enable-background:new 0 0 340.2 226.8;" xml:space="preserve">
<style type="text/css">
	.st0{fill:#FFFFFF;stroke:#010202;stroke-miterlimit:10;}
	.st1{fill:#010202;}
	.st2{fill:#FFFFFF;stroke:#000000;stroke-width:0.5;stroke-miterlimit:10;}
	.st3{font-family:'ArialMT';}
	.st4{font-size:10.0463px;}
	.st5{font-size:9.7659px;}
	.st6{font-family:'MyriadPro-Regular';}
	.st7{font-size:10px;}
</style>
<g id="Ebene_3">
	<polygon class="st0" points="23.6,15.4 48.1,1 72.7,15.3 72.8,43.7 48.3,58 23.7,43.8 	"/>
	<polygon class="st0" points="48.2,57.3 72.7,43 97.3,57.2 97.4,85.7 72.8,100 48.3,85.8 	"/>
	<polygon class="st0" points="23.6,99.7 48.1,85.4 72.7,99.6 72.8,128.1 48.3,142.4 23.7,128.2 	"/>
	<polygon class="st0" points="48.2,142.4 72.7,128.1 97.3,142.3 97.4,170.8 72.8,185 48.3,170.9 	"/>
	<polygon class="st0" points="23.6,185 48.1,170.7 72.7,184.9 72.8,213.4 48.3,227.6 23.7,213.5 	"/>
	<polygon class="st1" points="48.1,57.2 48.2,85.7 23.7,100 -0.9,85.8 -1,57.3 23.5,43 	"/>
	<polygon class="st1" points="-1,142.4 23.5,128.1 48.1,142.3 48.2,170.8 23.7,185 -0.9,170.9 	"/>
	<polygon class="st0" points="121.6,15.4 146.1,1 170.7,15.3 170.8,43.7 146.3,58 121.7,43.8 	"/>
	<polygon class="st1" points="146.2,57.3 170.7,43 195.3,57.2 195.4,85.7 170.8,100 146.3,85.8 	"/>
	<polygon class="st0" points="121.6,99.7 146.1,85.4 170.7,99.6 170.8,128.1 146.3,142.4 121.7,128.2 	"/>
	<polygon class="st1" points="146.2,142.4 170.7,128.1 195.3,142.3 195.4,170.8 170.8,185 146.3,170.9 	"/>
	<polygon class="st0" points="121.6,185 146.1,170.7 170.7,184.9 170.8,213.4 146.3,227.6 121.7,213.5 	"/>
	<polygon class="st0" points="97,57.3 121.5,43 146.1,57.2 146.2,85.7 121.7,100 97.1,85.8 	"/>
	<polygon class="st0" points="97,142.4 121.5,128.1 146.1,142.3 146.2,170.8 121.7,185 97.1,170.9 	"/>
	<polygon class="st1" points="121.7,15.3 121.8,43.7 97.2,58 72.7,43.8 72.6,15.4 97.1,1 	"/>
	<polygon class="st1" points="121.7,99.6 121.8,128.1 97.2,142.4 72.7,128.2 72.6,99.7 97.1,85.4 	"/>
	<polygon class="st1" points="121.7,184.9 121.8,213.4 97.2,227.6 72.7,213.5 72.6,185 97.1,170.7 	"/>
	<polygon class="st0" points="170.6,15.4 195.1,1 219.7,15.3 219.8,43.7 195.3,58 170.7,43.8 	"/>
	<polygon class="st0" points="195.2,57.3 219.7,43 244.3,57.2 244.4,85.7 219.8,100 195.3,85.8 	"/>
	<polygon class="st0" points="170.6,99.7 195.1,85.4 219.7,99.6 219.8,128.1 195.3,142.4 170.7,128.2 	"/>
	<polygon class="st0" points="195.2,142.4 219.7,128.1 244.3,142.3 244.4,170.8 219.8,185 195.3,170.9 	"/>
	<polygon class="st0" points="170.6,185 195.1,170.7 219.7,184.9 219.8,213.4 195.3,227.6 170.7,213.5 	"/>
	<polygon class="st0" points="268.6,15.4 293.1,1 317.7,15.3 317.8,43.7 293.3,58 268.7,43.8 	"/>
	<polygon class="st1" points="342.3,57.2 342.4,85.7 317.8,100 293.2,85.8 293.2,57.3 317.7,43 	"/>
	<polygon class="st0" points="268.6,99.7 293.1,85.4 317.7,99.6 317.8,128.1 293.3,142.4 268.7,128.2 	"/>
	<polygon class="st1" points="342.3,142.3 342.4,170.8 317.8,185 293.2,170.9 293.2,142.4 317.7,128.1 	"/>
	<polygon class="st0" points="268.6,185 293.1,170.7 317.7,184.9 317.8,213.4 293.3,227.6 268.7,213.5 	"/>
	<polygon class="st0" points="244,57.3 268.5,43 293.1,57.2 293.2,85.7 268.7,100 244.1,85.8 	"/>
	<polygon class="st0" points="244,142.4 268.5,128.1 293.1,142.3 293.2,170.8 268.7,185 244.1,170.9 	"/>
	<polygon class="st1" points="268.7,15.3 268.8,43.7 244.2,58 219.7,43.8 219.6,15.4 244.1,1 	"/>
	<polygon class="st1" points="219.6,99.7 244.1,85.4 268.7,99.6 268.8,128.1 244.3,142.4 219.7,128.2 	"/>
	<polygon class="st1" points="219.6,185 244.1,170.7 268.7,184.9 268.8,213.4 244.3,227.6 219.7,213.5 	"/>
	<path class="st2" d="M151.7,49.7L151.7,49.7c-3,0-5.5-2.5-5.5-5.5v-2.5c0-3,2.5-5.5,5.5-5.5h0c3,0,5.5,2.5,5.5,5.5v2.5
		C157.2,47.2,154.7,49.7,151.7,49.7z"/>
	<path class="st2" d="M121.8,149.1L121.8,149.1c-3,0-5.5-2.5-5.5-5.5v-2.5c0-3,2.5-5.5,5.5-5.5h0c3,0,5.5,2.5,5.5,5.5v2.5
		C127.3,146.6,124.8,149.1,121.8,149.1z"/>
	<path class="st2" d="M194,52.8L194,52.8c-3,0-5.5-2.5-5.5-5.5v-2.5c0-3,2.5-5.5,5.5-5.5h0c3,0,5.5,2.5,5.5,5.5v2.5
		C199.5,50.3,197,52.8,194,52.8z"/>
	<path class="st2" d="M271,149.1L271,149.1c-3,0-5.5-2.5-5.5-5.5v-2.5c0-3,2.5-5.5,5.5-5.5h0c3,0,5.5,2.5,5.5,5.5v2.5
		C276.5,146.6,274,149.1,271,149.1z"/>
	<path class="st2" d="M69.5,64.7L69.5,64.7c-3,0-5.5-2.5-5.5-5.5v-2.5c0-3,2.5-5.5,5.5-5.5h0c3,0,5.5,2.5,5.5,5.5v2.5
		C75,62.2,72.5,64.7,69.5,64.7z"/>
	<path class="st2" d="M61.4,46L61.4,46c-3,0-5.5-2.5-5.5-5.5V38c0-3,2.5-5.5,5.5-5.5h0c3,0,5.5,2.5,5.5,5.5v2.5
		C66.9,43.5,64.5,46,61.4,46z"/>
	<path class="st2" d="M121.8,92.1L121.8,92.1c-3,0-5.5-2.5-5.5-5.5v-2.5c0-3,2.5-5.5,5.5-5.5h0c3,0,5.5,2.5,5.5,5.5v2.5
		C127.3,89.6,124.8,92.1,121.8,92.1z"/>
	<path class="st2" d="M48.2,191.7L48.2,191.7c-3,0-5.5-2.5-5.5-5.5v-2.5c0-3,2.5-5.5,5.5-5.5h0c3,0,5.5,2.5,5.5,5.5v2.5
		C53.7,189.2,51.2,191.7,48.2,191.7z"/>
	<path class="st2" d="M50.4,134.8L50.4,134.8c-3,0-5.5-2.5-5.5-5.5v-2.5c0-3,2.5-5.5,5.5-5.5h0c3,0,5.5,2.5,5.5,5.5v2.5
		C55.9,132.3,53.5,134.8,50.4,134.8z"/>
	<path class="st2" d="M72.6,149.1L72.6,149.1c-3,0-5.5-2.5-5.5-5.5v-2.5c0-3,2.5-5.5,5.5-5.5h0c3,0,5.5,2.5,5.5,5.5v2.5
		C78.1,146.6,75.6,149.1,72.6,149.1z"/>
	<path class="st2" d="M293.2,193.1L293.2,193.1c-3,0-5.5-2.5-5.5-5.5v-2.5c0-3,2.5-5.5,5.5-5.5h0c3,0,5.5,2.5,5.5,5.5v2.5
		C298.7,190.6,296.2,193.1,293.2,193.1z"/>
	<path class="st2" d="M146.2,132.7L146.2,132.7c-3,0-5.5-2.5-5.5-5.5v-2.5c0-3,2.5-5.5,5.5-5.5h0c3,0,5.5,2.5,5.5,5.5v2.5
		C151.7,130.2,149.2,132.7,146.2,132.7z"/>
	<path class="st2" d="M146.2,191.7L146.2,191.7c-3,0-5.5-2.5-5.5-5.5v-2.5c0-3,2.5-5.5,5.5-5.5h0c3,0,5.5,2.5,5.5,5.5v2.5
		C151.7,189.2,149.2,191.7,146.2,191.7z"/>
	<path class="st2" d="M194,191.7L194,191.7c-3,0-5.5-2.5-5.5-5.5v-2.5c0-3,2.5-5.5,5.5-5.5h0c3,0,5.5,2.5,5.5,5.5v2.5
		C199.5,189.2,197,191.7,194,191.7z"/>
	<path class="st2" d="M219.8,149.1L219.8,149.1c-3,0-5.5-2.5-5.5-5.5v-2.5c0-3,2.5-5.5,5.5-5.5l0,0c3,0,5.5,2.5,5.5,5.5v2.5
		C225.3,146.6,222.8,149.1,219.8,149.1z"/>
	<path class="st2" d="M197.1,132.7L197.1,132.7c-3,0-5.5-2.5-5.5-5.5v-2.5c0-3,2.5-5.5,5.5-5.5l0,0c3,0,5.5,2.5,5.5,5.5v2.5
		C202.6,130.2,200.1,132.7,197.1,132.7z"/>
	<path class="st2" d="M291.8,134.8L291.8,134.8c-3,0-5.5-2.5-5.5-5.5v-2.5c0-3,2.5-5.5,5.5-5.5h0c3,0,5.5,2.5,5.5,5.5v2.5
		C297.3,132.3,294.9,134.8,291.8,134.8z"/>
	<path class="st2" d="M232.5,86.6L232.5,86.6c-3,0-5.5-2.5-5.5-5.5v-2.5c0-3,2.5-5.5,5.5-5.5l0,0c3,0,5.5,2.5,5.5,5.5v2.5
		C238,84.2,235.5,86.6,232.5,86.6z"/>
	<path class="st2" d="M268.6,93.4L268.6,93.4c-3,0-5.5-2.5-5.5-5.5v-2.5c0-3,2.5-5.5,5.5-5.5l0,0c3,0,5.5,2.5,5.5,5.5v2.5
		C274.1,90.9,271.6,93.4,268.6,93.4z"/>
	<path class="st2" d="M311.1,39.3L311.1,39.3c-3,0-5.5-2.5-5.5-5.5v-2.5c0-3,2.5-5.5,5.5-5.5h0c3,0,5.5,2.5,5.5,5.5v2.5
		C316.5,36.8,314.1,39.3,311.1,39.3z"/>
</g>
<g id="Ebene_2">
	<text transform="matrix(0.9954 0 0 1 38.7998 32.5047)" class="st1 st3 st4">Ball</text>
	<text transform="matrix(0.9954 0 0 1 135.7109 32.5051)" class="st1 st3 st4">Tore</text>
	<text transform="matrix(0.9801 0 0 1 276.5146 20.2088)" class="st1 st3 st5">Schieds-</text>
	<text transform="matrix(0.9801 0 0 1 276.5146 31.9275)" class="st1 st3 st5">richter-</text>
	<text transform="matrix(0.9801 0 0 1 276.5146 43.6463)" class="st1 st3 st5">gespan</text>
	<text transform="matrix(0.9954 0 0 1 175.4961 32.5051)" class="st1 st3 st4">Bällchen</text>
	<text transform="matrix(0.9954 0 0 1 55.9336 73.8699)" class="st1 st3 st4">Position</text>
	<text transform="matrix(0.9954 0 0 1 110.3003 73.8699)" class="st1 st3 st4">Pass</text>
	<text transform="matrix(0.9954 0 0 1 202.6143 67.842)" class="st1 st3 st4">Verteidi-</text>
	<text transform="matrix(0.9954 0 0 1 202.6143 79.8977)" class="st1 st3 st4">gung</text>
	<text transform="matrix(0.9954 0 0 1 276.5146 202.905)" class="st1 st3 st4">Konter</text>
	<text transform="matrix(0.9954 0 0 1 254.5156 73.8694)" class="st1 st3 st4">Anpfiff</text>
	<text transform="matrix(0.9954 0 0 1 38.8003 116.8806)" class="st1 st3 st4">Foul</text>
	<text transform="matrix(0.9954 0 0 1 183.7109 202.905)" class="st1 st3 st4">Latte</text>
	<text transform="matrix(0.9954 0 0 1 130.8291 202.905)" class="st1 st3 st4">Spieler</text>
	<text transform="matrix(0.9954 0 0 1 134.1626 116.8806)" class="st1 st3 st4">Serie</text>
	<text transform="matrix(0.9954 0 0 1 38.7998 202.905)" class="st1 st3 st4">Ecke</text>
	<text transform="matrix(0.9954 0 0 1 251.1817 159.6843)" class="st1 st3 st4">Halbzeit</text>
	<text transform="matrix(0.9954 0 0 1 202.6143 159.6843)" class="st1 st3 st4">Elfmeter</text>
	<text transform="matrix(0.9954 0 0 1 110.3003 159.6834)" class="st1 st3 st4">Gelb</text>
	<text transform="matrix(0.9954 0 0 1 58.0015 161.3953)" class="st1 st3 st4">Schuss</text>
	<text transform="matrix(0.9954 0 0 1 280.2402 116.8806)" class="st1 st3 st4">Kugel</text>
	<text transform="matrix(0.9954 0 0 1 188.4951 116.8806)" class="st1 st3 st4">Tor</text>
	<text transform="matrix(1 0 0 1 59.3346 42.97)" class="st6 st7">?</text>
	<text transform="matrix(1 0 0 1 67.1002 61.47)" class="st6 st7">?</text>
	<text transform="matrix(1 0 0 1 120.0846 88.47)" class="st6 st7">?</text>
	<text transform="matrix(1 0 0 1 149.8346 46.0052)" class="st6 st7">?</text>
	<text transform="matrix(1 0 0 1 48.2002 130.97)" class="st6 st7">?</text>
	<text transform="matrix(1 0 0 1 70.5846 145.47)" class="st6 st7">?</text>
	<text transform="matrix(1 0 0 1 46.4503 187.9695)" class="st6 st7">?</text>
	<text transform="matrix(1 0 0 1 120.0848 145.4695)" class="st6 st7">?</text>
	<text transform="matrix(1 0 0 1 144.3346 187.9691)" class="st6 st7">?</text>
	<text transform="matrix(1 0 0 1 144.3348 129.72)" class="st6 st7">?</text>
	<text transform="matrix(1 0 0 1 195.2002 129.72)" class="st6 st7">?</text>
	<text transform="matrix(1 0 0 1 191.6144 49.72)" class="st6 st7">?</text>
	<text transform="matrix(1 0 0 1 231.0846 83.97)" class="st6 st7">?</text>
	<text transform="matrix(1 0 0 1 267.0846 90.47)" class="st6 st7">?</text>
	<text transform="matrix(1 0 0 1 309.0846 36.22)" class="st6 st7">?</text>
	<text transform="matrix(1 0 0 1 218.0846 145.4695)" class="st6 st7">?</text>
	<text transform="matrix(1 0 0 1 268.8001 145.4691)" class="st6 st7">?</text>
	<text transform="matrix(1 0 0 1 290.3346 130.9695)" class="st6 st7">?</text>
	<text transform="matrix(1 0 0 1 191.6146 188.72)" class="st6 st7">?</text>
	<text transform="matrix(1 0 0 1 291.8335 189.72)" class="st6 st7">?</text>
</g>
</svg>
