<?xml version="1.0" encoding="UTF-8" standalone="no"?>
<!-- Created with Inkscape (http://www.inkscape.org/) -->

<svg
   xmlns:dc="http://purl.org/dc/elements/1.1/"
   xmlns:cc="http://creativecommons.org/ns#"
   xmlns:rdf="http://www.w3.org/1999/02/22-rdf-syntax-ns#"
   xmlns:svg="http://www.w3.org/2000/svg"
   xmlns="http://www.w3.org/2000/svg"
   version="1.1"
   width="150"
   height="295"
   id="svg3039">
  <metadata
     id="metadata3045">
    <rdf:RDF>
      <cc:Work
         rdf:about="">
        <dc:format>image/svg+xml</dc:format>
        <dc:type
           rdf:resource="http://purl.org/dc/dcmitype/StillImage" />
        <dc:title></dc:title>
      </cc:Work>
    </rdf:RDF>
  </metadata>
  <defs
     id="defs3043" />
  <path
     d="M 2.0731313,292.30792 C 0.81964356,290.46227 18.685238,118.06275 20.754648,112.03495 c 1.083231,-3.15525 3.655354,-8.01652 5.715822,-10.80282 2.485769,-3.361397 3.208754,-5.065987 2.148674,-5.065987 -2.560263,0 -12.03718,-4.932643 -14.568453,-7.582729 -2.046327,-2.142384 -2.255411,-3.506617 -1.76846,-11.53876 0.495416,-8.171792 0.262868,-9.603778 -2.259928,-13.91635 -3.6991092,-6.323391 -3.5538521,-9.132471 0.66232,-12.808291 3.014773,-2.628399 3.474495,-3.776999 3.474495,-8.680992 0,-5.487763 2.047937,-10.72311 5.381124,-13.756325 2.507914,-2.282207 11.867925,-6.545869 14.370141,-6.545869 1.274514,0 5.354185,-2.980736 9.376214,-6.850571 3.915987,-3.767814 8.040908,-6.8505712 9.166471,-6.8505712 1.125562,0 4.007436,1.8831535 6.404154,4.1847862 6.13165,5.888397 11.260607,7.962511 15.623437,6.318007 1.857639,-0.700213 3.377534,-1.667595 3.377534,-2.149737 0,-0.482142 1.954403,-1.710853 4.343118,-2.730468 2.388716,-1.019616 5.03181,-2.464677 5.873553,-3.21125 0.841731,-0.7465725 2.504798,-1.3574042 3.695681,-1.3574042 1.190895,0 2.487357,-0.4742703 2.88104,-1.053934 0.393683,-0.5796637 2.283322,-1.053934 4.199205,-1.053934 1.91588,0 5.14246,-1.1309123 7.17018,-2.5131373 2.60641,-1.7767041 5.96469,-2.7265432 11.46035,-3.24139941 l 7.77361,-0.72826209 0.7674,2.9779159 c 1.97329,7.6573801 3.80542,13.7452191 4.86098,16.1520911 5.40636,12.327624 4.7191,11.593274 10.84985,11.593274 l 5.61493,0 0,4.706031 c 0,4.721411 -0.60345,5.650905 -9.55486,14.71729 -2.52981,2.562307 -2.58036,6.055561 -0.14952,10.333233 1.36907,2.409215 1.69937,4.872097 1.22012,9.097713 -0.56,4.937554 -1.32351,6.400567 -5.16433,9.895719 -3.33059,3.030852 -5.76543,4.255114 -9.32726,4.689863 -4.79926,0.585779 -4.82011,0.607743 -4.82011,5.078405 l 0,4.490075 7.22716,1.958241 c 5.92928,1.606575 8.52912,3.11877 14.47706,8.420577 6.10512,5.4419 7.24252,7.0229 7.20312,10.01237 -0.0257,1.95252 -4.61425,34.82093 -10.1967,73.0409 -6.8656,47.005 -10.61065,69.6306 -11.5738,69.92276 -0.78314,0.23756 -2.12538,-0.0979 -2.98274,-0.74538 -0.85737,-0.64752 -6.64127,-14.70003 -12.85311,-31.22781 -6.21184,-16.52779 -11.448669,-29.91002 -11.637381,-29.73828 -0.188722,0.17173 -5.865827,11.19437 -12.615798,24.49475 -11.453974,22.56933 -13.826695,26.37748 -15.758039,25.29126 -0.416349,-0.23415 -2.729552,-9.5697 -5.140469,-20.74565 -2.410906,-11.17596 -4.756468,-20.70236 -5.212345,-21.16979 -0.455877,-0.46743 -12.147529,18.74052 -25.981428,42.68433 -13.83391,23.94381 -25.9765405,44.36417 -26.9836344,45.37858 -1.9852917,1.99973 -4.4300506,2.40362 -5.4508943,0.9005 z M 28.21777,245.67806 c 10.103484,-17.50299 18.369968,-32.39768 18.369968,-33.09932 0,-0.70163 -0.912055,-1.9266 -2.026789,-2.72216 -1.836919,-1.31096 -1.877883,-1.27368 -0.437277,0.39792 1.406117,1.63157 1.305889,1.84439 -0.868623,1.84439 -1.501214,0 -2.458136,-0.66955 -2.458136,-1.71994 0,-0.94597 -1.797414,-3.26257 -3.994268,-5.14799 -2.196842,-1.88543 -3.680405,-3.71366 -3.296809,-4.06273 1.020864,-0.929 8.568081,3.46058 11.923737,6.93504 l 2.895412,2.99793 24.321465,-42.28659 c 13.376806,-23.25762 24.878635,-42.49604 25.559613,-42.75204 0.861049,-0.32368 0.890907,-2.00806 0.09798,-5.53024 -1.176464,-5.22624 -2.771281,-6.45543 -11.180589,-8.61735 l -2.895413,-0.74437 3.225698,-0.1247 c 1.774135,-0.0686 4.526572,0.65096 6.116513,1.59898 1.589952,0.94801 3.13748,1.49919 3.438974,1.22484 1.404345,-1.27792 -2.584792,-8.08581 -6.822506,-11.64347 -5.071998,-4.258048 -6.537702,-4.806789 -6.537702,-2.447653 0,1.851353 -13.044517,9.210133 -16.687224,9.413743 -1.45608,0.0814 -2.633412,0.62224 -2.616306,1.2019 0.07076,2.39768 -5.598813,12.12024 -7.067771,12.12024 -1.250529,0 -1.201435,-0.3537 0.229861,-1.65618 1.00099,-0.91089 1.819975,-2.10751 1.819975,-2.65913 0,-1.58142 -5.596972,2.16876 -6.167727,4.1326 -0.330251,1.13631 -0.560355,0.85481 -0.646916,-0.79145 l -0.134347,-2.55507 -2.680515,2.29159 c -3.288227,2.8111 -6.593167,2.91932 -9.882089,0.32357 -2.218836,-1.75119 -2.495579,-3.05743 -2.512037,-11.85676 l -0.01853,-9.888748 -3.596079,3.688768 c -8.673057,8.89661 -9.106848,9.73297 -9.070377,17.48812 0.01888,4.00363 -0.490391,9.17641 -1.131597,11.49507 -0.641207,2.31865 -1.178271,4.57144 -1.193466,5.00618 -0.01517,0.43475 3.330454,0.79045 7.434771,0.79045 6.398514,0 7.719436,0.33394 9.26532,2.34238 2.873847,3.73374 2.11621,4.32934 -2.327819,1.82997 -3.143712,-1.76807 -5.24211,-2.18754 -8.781879,-1.75548 -2.558143,0.31224 -4.890155,0.7852 -5.182267,1.05102 -0.578121,0.52609 -8.50495,77.26561 -8.514401,82.42774 l -0.0058,3.1618 8.305455,0.24348 c 12.349502,0.36205 13.001642,2.39135 0.768489,2.39135 l -9.897238,0 -1.967189,19.76127 c -1.081958,10.86869 -2.2715439,21.89548 -2.6435234,24.50396 -0.371991,2.60849 -0.2766624,4.40025 0.2118168,3.9817 0.4884793,-0.41856 9.1546346,-15.08164 19.2581176,-32.58463 z m 6.04898,-66.7781 c -0.414426,-0.98278 -2.179273,-1.5809 -4.664672,-1.5809 -2.370416,0 -3.706614,-0.42905 -3.282228,-1.05393 1.148981,-1.69179 8.667209,-1.27146 9.425576,0.52697 0.366663,0.86949 1.622473,1.5809 2.790714,1.5809 1.168241,0 2.446172,0.47427 2.839855,1.05393 0.418214,0.61578 -0.772195,1.05393 -2.863412,1.05393 -2.113107,0 -3.852254,-0.64755 -4.245833,-1.5809 z m 22.16539,-8.95844 c -0.393683,-0.57966 -1.61132,-1.05393 -2.705855,-1.05393 -1.094547,0 -3.420397,-1.48333 -5.168578,-3.29628 -2.882522,-2.98936 -3.661434,-3.24675 -8.365055,-2.7643 -3.727913,0.38237 -5.186564,0.1555 -5.186564,-0.8067 0,-2.17586 3.168589,-2.65557 9.447105,-1.43026 4.157129,0.81131 6.060944,1.73794 6.465885,3.14709 0.368806,1.28341 2.469173,2.50009 5.876807,3.40429 2.916584,0.7739 5.50455,1.95765 5.751031,2.63056 0.551726,1.5062 -5.100547,1.66291 -6.114776,0.16953 z m -0.579082,-28.32204 c 0,-1.81827 7.996341,-4.91289 16.50077,-6.38588 8.802598,-1.52463 12.362635,-1.02878 9.906086,1.37976 -0.860806,0.84399 -1.800344,1.05079 -2.192452,0.48258 -0.745511,-1.08033 -10.415586,0.72106 -14.370002,2.67692 -1.273981,0.63012 -3.098091,1.22132 -4.053577,1.31378 -0.955486,0.0924 -2.649303,0.50787 -3.764036,0.92312 -1.195841,0.44546 -2.026789,0.28545 -2.026789,-0.39028 z m 79.105832,42.95656 0.54501,-3.80932 -5.37002,0.5074 c -4.94748,0.46748 -5.22794,0.37137 -3.56445,-1.22137 0.99305,-0.95083 3.59892,-2.603 5.79083,-3.67149 l 3.98526,-1.9427 2.43662,-16.21315 c 4.22426,-28.10798 4.27766,-28.65146 2.72953,-27.78077 -1.02964,0.5791 -1.27208,-0.23067 -0.91121,-3.0436 0.46202,-3.60131 0.29603,-3.83261 -2.75025,-3.83261 -1.78306,0 -3.24193,0.47427 -3.24193,1.05393 0,0.57967 -0.74665,1.05394 -1.6592,1.05394 -0.91257,0 -1.99003,0.94854 -2.39438,2.10786 -0.40435,1.15933 -1.22123,2.10787 -1.8153,2.10787 -1.85698,0 -1.18494,-2.75627 1.40166,-5.74865 2.14444,-2.48087 3.1677,-2.82148 7.52807,-2.5059 l 5.0463,0.36523 -0.005,-4.22332 c -0.006,-5.31674 -3.17043,-10.09964 -9.40116,-14.20695 -4.79996,-3.16415 -13.37762,-5.995722 -14.65139,-4.836574 -0.36288,0.330218 0.47149,1.696194 1.85415,3.035504 3.21762,3.11676 3.16172,4.01288 -0.44249,7.09413 -2.47818,2.11861 -3.12609,2.27761 -4.00535,0.98297 -0.83538,-1.23002 -1.3417,-1.27805 -2.48696,-0.23586 -1.09137,0.99343 -1.10299,1.30861 -0.048,1.30861 0.78227,0 1.32085,1.26695 1.23208,2.89832 -0.13523,2.48501 -0.22929,2.56016 -0.65963,0.52696 -0.27606,-1.30424 -1.13652,-2.37135 -1.91216,-2.37135 -0.77562,0 -1.4934,-1.00478 -1.59506,-2.23283 -0.10168,-1.22806 -1.12461,-2.84 -2.27324,-3.5821 -1.14864,-0.7421 -3.65195,-2.58236 -5.56292,-4.08948 -3.207506,-2.529648 -7.151799,-3.788382 -6.117767,-1.95234 4.374267,7.767 5.386407,11.24745 6.129817,21.07868 0.68568,9.06764 0.54764,10.80282 -0.85939,10.80282 -2.266367,0 -4.254623,4.26323 -3.550795,7.61367 0.450712,2.14555 0.132101,2.6912 -1.496175,2.56238 -1.293694,-0.10234 -3.022568,1.36219 -4.614338,3.90885 l -2.545496,4.07252 4.21074,10.89242 4.210741,10.8924 3.679063,-3.23997 c 3.13373,-2.75974 4.26268,-3.14034 7.6164,-2.5678 4.04777,0.69102 8.83912,3.23511 7.81244,4.14822 -0.3175,0.28237 -2.86733,-0.19404 -5.66629,-1.05868 -5.00317,-1.54556 -5.13245,-1.5261 -7.66282,1.15367 -1.41559,1.49916 -3.16463,2.72575 -3.88676,2.72575 -0.722124,0 -1.312951,0.13634 -1.312951,0.30298 0,0.30285 11.110941,30.6913 12.115091,33.13481 0.39777,0.96795 1.36706,0.85629 3.85744,-0.44436 2.21947,-1.15917 4.06543,-1.43995 5.548,-0.84389 2.16228,0.86932 2.15975,0.90369 -0.0945,1.28201 -1.27398,0.2138 -3.48687,1.19806 -4.91752,2.18724 l -2.6012,1.79851 6.64426,18.20769 6.64425,18.20769 4.25643,-29.27533 c 2.34105,-16.10142 4.50168,-30.9895 4.80145,-33.08464 z m -13.09043,31.05573 c 0,-1.89739 5.4978,-4.23654 6.87389,-2.92463 0.60609,0.57782 -0.58199,1.66722 -2.92684,2.68374 -3.2499,1.40888 -3.94705,1.45143 -3.94705,0.24089 z m -6.94899,-65.18803 c 1.60041,-1.55024 4.00885,-2.63483 5.8509,-2.63483 1.72194,0 3.7796,-0.71141 4.57259,-1.5809 1.62261,-1.77918 7.58992,-2.14119 8.68623,-0.52697 0.41762,0.61489 -0.76008,1.05394 -2.82705,1.05394 -1.94857,0 -3.54285,0.42742 -3.54285,0.94982 0,1.6866 -8.13061,5.37378 -11.84973,5.37378 l -3.61019,0 2.7201,-2.63484 z m 5.21174,-0.52696 c 0.9059,-1.33386 -0.62729,-1.33386 -2.89541,0 -1.49715,0.88045 -1.46657,1.02388 0.22119,1.0378 1.07714,0.008 2.28054,-0.45814 2.67422,-1.0378 z m -13.9456,-15.87913 c -1.16141,-1.71007 0.003,-2.24092 6.07078,-2.76604 l 5.55849,-0.48111 -2.89541,2.16217 c -3.13692,2.34251 -7.51078,2.88587 -8.73386,1.08498 z m -20.911699,80.72394 12.292752,-24.21261 -5.928728,-16.18757 -5.928716,-16.18756 -1.969309,2.98552 c -1.083127,1.64204 -6.167599,10.33671 -11.298837,19.32149 l -9.329529,16.33598 4.742975,21.27661 c 2.60864,11.70214 4.829305,21.18754 4.934814,21.07868 0.105509,-0.10886 5.723559,-11.0936 12.484578,-24.41054 z m -8.573883,-4.71534 c 0.955486,-0.59229 3.257339,-1.08416 5.115232,-1.09303 4.450238,-0.0213 3.525512,0.58863 -2.21982,1.46405 -3.31937,0.50577 -4.140173,0.4006 -2.895412,-0.37102 z m -9.26532,-7.33592 c 0,-1.7036 4.108798,-3.25865 8.610099,-3.25865 2.271347,0 4.129716,-0.47427 4.129716,-1.05394 0,-0.57966 0.504821,-1.05393 1.12181,-1.05393 0.617001,0 0.821834,0.7114 0.455182,1.5809 -0.425035,1.00793 -2.207382,1.5809 -4.917696,1.5809 -2.33808,0 -5.409372,0.7383 -6.825078,1.64066 -1.415718,0.90237 -2.574033,1.15619 -2.574033,0.56406 z m 14.187521,-24.03828 c 1.751724,-0.24149 4.618183,-0.24149 6.369907,0 1.751725,0.24148 0.318496,0.43906 -3.184953,0.43906 -3.50345,0 -4.936679,-0.19758 -3.184954,-0.43906 z m 52.475151,-0.88417 c 2.21217,-1.61281 2.21108,-1.62352 -0.0682,-0.66937 -1.27398,0.53331 -3.09809,1.23344 -4.05358,1.55584 -1.50068,0.50635 -1.4914,0.5975 0.0682,0.66937 0.99299,0.0457 2.8171,-0.65435 4.05358,-1.55584 z M 52.14693,117.03404 c 1.573877,-1.43224 1.798769,-6.25057 0.5374,-11.51423 -0.816425,-3.40698 -0.883888,-3.31251 -1.599032,2.23961 -0.410651,3.18815 -1.130207,6.86374 -1.599009,8.16799 -0.923637,2.56959 0.432945,3.13384 2.660641,1.10663 z m -2.410894,-11.75831 c -0.283623,-2.81519 -1.015734,-5.423674 -1.626921,-5.796641 -0.611187,-0.372966 -1.496314,-1.626652 -1.966935,-2.785979 -0.840249,-2.069863 -0.815788,-2.068999 1.356767,0.04806 1.21685,1.18576 2.556696,2.845706 2.977446,3.68877 0.420749,0.84305 0.510611,-0.71363 0.19969,-3.459307 -0.659991,-5.828287 -4.49529,-11.839864 -9.926782,-15.559566 -5.810931,-3.979563 -9.730138,-8.276638 -10.381838,-11.382793 -0.322375,-1.536527 -1.88233,-3.412357 -3.474495,-4.17805 l -2.889447,-1.389575 2.895412,0.30722 c 2.096684,0.222471 3.224829,1.234614 4.089562,3.669062 1.263951,3.558387 4.790575,7.579017 10.4556,11.920202 1.891075,1.44916 4.66063,4.203521 6.15457,6.120807 1.493941,1.917274 2.903867,3.315244 3.133161,3.106586 0.581572,-0.529243 -6.753445,-21.22706 -7.753301,-21.878093 -1.610556,-1.04868 -3.647988,-12.299571 -3.911934,-21.602155 l -0.269146,-9.485407 0.85827,9.485407 c 0.919722,10.164428 2.640651,18.225899 4.544883,21.28984 2.89547,4.65887 8.033623,21.787753 7.400211,24.669798 -0.368471,1.676567 -0.397726,3.048294 -0.06497,3.048294 1.208082,0 4.890432,-22.755785 6.263854,-38.708625 0.406968,-4.72699 0.05165,-7.500248 -1.269847,-9.910814 -1.009236,-1.840947 -1.83495,-4.171059 -1.83495,-5.178027 0,-1.006968 -1.030906,-3.898291 -2.290897,-6.425163 -1.259994,-2.526872 -2.265791,-5.542854 -2.235111,-6.702182 0.06254,-2.363554 4.35155,7.741715 5.367886,12.647209 0.360282,1.738991 1.302079,4.110342 2.092886,5.26967 1.746235,2.560004 3.000597,16.130284 1.565607,16.937345 -0.564235,0.317332 -1.029527,3.27603 -1.033998,6.574887 -0.0046,3.298856 -1.031659,9.882999 -2.282674,14.631428 -1.955584,7.422777 -2.056982,9.015166 -0.722973,11.355047 l 1.551582,2.721542 1.268272,-2.923571 c 1.025509,-2.363963 3.668407,-20.018375 3.668407,-24.504741 0,-1.473855 5.722864,-3.648969 15.469795,-5.879679 6.952047,-1.591062 8.137105,-2.226023 9.50953,-5.095241 1.738406,-3.634343 2.259082,-2.217613 0.623614,1.696844 -0.852421,2.040258 -2.861154,2.905375 -11.394606,4.907404 -5.697871,1.336771 -10.930078,2.751248 -11.627131,3.14328 -0.697053,0.392031 -1.880929,5.921467 -2.630853,12.287635 -0.749912,6.366172 -2.016157,12.760526 -2.813877,14.209686 -1.791276,3.254095 -3.503172,21.309316 -1.798712,18.970816 0.633748,-0.8695 1.16025,-2.85716 1.170013,-4.41702 0.0093,-1.55987 0.538906,-3.12924 1.175897,-3.48749 0.63699,-0.35825 1.150185,-1.69049 1.140433,-2.96052 -0.01448,-1.8773 -0.227695,-2.0135 -1.140433,-0.72825 -0.617488,0.8695 -1.116182,1.10663 -1.108214,0.52697 0.0081,-0.57967 1.563512,-2.91693 3.456764,-5.193935 1.893252,-2.277004 3.442275,-4.711634 3.442275,-5.410286 0,-0.698664 1.172642,-1.524105 2.605871,-1.834309 8.460152,-1.831126 14.818663,-5.336226 13.955425,-7.692868 -0.398571,-1.088094 4.444249,-4.819108 14.63602,-11.275912 l 4.658166,-2.951091 -0.70839,-6.534315 C 99.875847,59.584059 98.821141,52.849454 97.921675,48.212145 97.022198,43.574835 95.825571,36.627396 95.262482,32.77339 c -0.563088,-3.854005 -1.707737,-8.00387 -2.543654,-9.221923 -2.504486,-3.649416 -9.645071,-2.899431 -19.782837,2.077817 -1.313301,0.64478 -2.026788,0.620916 -2.026788,-0.06779 0,-0.584576 -1.61505,-1.062865 -3.589003,-1.062865 -5.080001,0 -10.346096,-2.543587 -15.486728,-7.480282 -4.411218,-4.236207 -6.283751,-4.206228 -6.417508,0.102748 -0.02699,0.869496 -1.866093,3.359415 -4.086897,5.533154 -3.472237,3.398658 -4.743775,3.952252 -9.07779,3.952252 -3.345105,0 -6.066167,0.734565 -8.091566,2.184363 -2.618079,1.874037 -3.051603,2.986296 -3.051603,7.829221 0,3.612408 0.625502,6.214069 1.737248,7.225762 2.915946,2.65352 1.47959,12.185318 -2.192117,14.547113 -0.594614,0.382476 -1.245387,4.888044 -1.446178,10.012373 l -0.365065,9.316963 10.575923,6.323604 c 5.816768,3.477983 11.017206,6.205037 11.556541,6.060121 0.539345,-0.144916 0.980618,0.922192 0.980618,2.371352 0,1.449159 0.521174,2.634835 1.158165,2.634835 0.686722,0 1.158165,3.879257 1.158165,9.529892 0,6.14273 0.511886,10.02855 1.440224,10.9329 2.236336,2.17855 4.657306,-4.0172 4.024404,-10.29927 z m 28.39956,-24.678526 c -0.789567,-1.522495 -1.410691,-3.740729 -1.380278,-4.929409 0.03092,-1.208627 0.832466,-0.142108 1.818528,2.419673 1.994059,5.180572 1.730264,6.691255 -0.43825,2.509736 z M 61.756804,56.9071 c 0.743924,-1.304243 1.918674,-3.019285 2.61055,-3.811202 2.290746,-2.621953 4.187496,-9.018914 4.416836,-14.896127 l 0.226201,-5.796637 0.452507,5.26967 c 0.493216,5.74376 -1.267241,12.112843 -4.560333,16.498674 -1.155281,1.538642 -2.100517,3.317156 -2.100517,3.952252 0,0.635098 -0.539508,1.154722 -1.19891,1.154722 -0.780915,0 -0.727339,-0.826778 0.153666,-2.371352 z m 8.637224,45.55615 c 2.761412,-1.14475 5.700812,-2.09645 6.532004,-2.11489 3.734943,-0.0828 5.564821,-2.82065 5.564821,-8.325938 0,-4.992949 -0.165456,-5.341685 -1.819976,-3.836067 -1.000978,0.910905 -2.546828,1.656184 -3.435198,1.656184 -1.361052,0 -9.163054,2.840921 -10.925596,3.978305 -0.300046,0.193619 0.221129,0.793265 1.158165,1.332531 1.447695,0.833156 1.413726,0.98292 -0.226004,0.996632 -1.061343,0.0084 -2.605165,1.404747 -3.430705,3.101928 -0.82554,1.697185 -1.781281,2.928145 -2.123866,2.735475 -0.342574,-0.19267 -0.660154,0.90864 -0.705716,2.44736 -0.04552,1.53872 -0.530231,3.74622 -1.077059,4.90555 -0.5579,1.18282 0.423854,0.59304 2.237077,-1.34392 1.777216,-1.89847 5.49064,-4.38839 8.252053,-5.53315 z m 43.367282,5.42525 c 0,-1.74133 -13.00263,-10.668476 -15.478739,-10.627172 -2.060167,0.03436 -1.89302,0.279619 1.001674,1.46969 1.910975,0.785634 5.559195,3.320612 8.107155,5.633262 4.70328,4.26893 6.36991,5.19101 6.36991,3.52422 z M 55.273975,99.327945 c -0.439732,-1.821894 -1.060091,-3.07539 -1.378587,-2.785558 -0.318495,0.289832 -0.21931,2.017598 0.220422,3.839493 0.439732,1.82189 1.060092,3.07539 1.378587,2.78556 0.318496,-0.28983 0.21931,-2.0176 -0.220422,-3.839495 z M 93.49342,93.813762 c 2.131742,-0.44944 2.0856,-0.574668 -0.579083,-1.571521 -2.333586,-0.872995 -3.035839,-0.75077 -3.619115,0.629915 -0.845159,2.000588 0.09474,4.008891 1.158015,2.47449 0.398119,-0.574489 1.766202,-1.264289 3.040183,-1.532884 z m 17.95156,-3.315202 c 0,-3.369627 -3.02381,-5.747672 -3.92062,-3.083337 -0.35182,1.045187 -0.40164,-0.376887 -0.11072,-3.160181 0.33786,-3.232489 0.10875,-4.824232 -0.63417,-4.406394 -0.63969,0.359774 -0.9592,0.977066 -0.71002,1.37176 0.24916,0.394694 0.0337,1.666166 -0.4788,2.825493 -0.78996,1.786935 -0.94978,1.626474 -1.04963,-1.053934 -0.0781,-2.09604 -1.11557,-3.823469 -3.0779,-5.124773 -2.848329,-1.88885 -3.131211,-1.892755 -7.491679,-0.103422 -5.178596,2.125062 -5.8646,4.356607 -1.636163,5.322367 1.592477,0.363715 2.895413,1.052197 2.895413,1.529962 0,0.477759 1.172642,1.201738 2.605871,1.608841 1.433229,0.407103 4.317828,2.099004 6.410208,3.759783 4.67198,3.708309 7.19821,3.888637 7.19821,0.513835 z m -72.964397,1.071629 c 0,-0.209111 -3.257339,-2.350199 -7.238531,-4.757964 -3.981192,-2.407754 -8.411174,-5.140133 -9.844403,-6.071937 -3.510039,-2.28203 -3.302125,-0.517955 0.362877,3.078867 2.887953,2.834232 9.418301,6.032953 16.430516,8.048044 0.159247,0.04574 0.289541,-0.0879 0.289541,-0.29701 z M 124.67728,79.303198 c 5.9979,0 7.97202,-2.005724 7.33454,-7.451992 -0.30052,-2.567537 -1.24,-6.169957 -2.08773,-8.005378 -2.12779,-4.606876 0.13926,-10.565949 6.00141,-15.775026 3.64027,-3.234718 4.4736,-4.72067 4.4736,-7.977056 l 0,-4.001843 -5.61493,0 c -5.51374,0 -5.65169,-0.08072 -7.65463,-4.479219 -3.85297,-8.46119 -4.34815,-9.766778 -6.44217,-16.98538 -1.15458,-3.980069 -2.58074,-7.6746707 -3.16926,-8.2102252 -1.53292,-1.3949596 -11.53804,0.8475906 -15.20285,3.40757 -9.552272,6.6725312 -9.02577,6.1693082 -6.494565,6.2074452 3.331843,0.0502 5.220355,3.447364 6.377185,11.471626 1.18912,8.248377 3.34815,18.995838 4.26592,21.235392 0.35632,0.869495 0.58376,3.477982 0.50543,5.796637 -0.0783,2.318655 0.31707,5.875682 0.87868,7.904505 0.76993,2.781342 1.03699,0.65957 1.08564,-8.625187 0.0354,-6.772676 0.58404,-14.123866 1.21902,-16.335978 0.63496,-2.212111 1.31437,-8.409021 1.50977,-13.77091 0.19542,-5.36189 0.70586,-9.74889 1.13431,-9.74889 1.07853,0 -0.13654,19.854177 -1.44475,23.607303 -1.31189,3.763654 -1.36678,13.323821 -0.087,15.15915 0.63571,0.911709 1.46249,-0.117632 2.53956,-3.161803 1.58652,-4.484029 2.94956,-6.07814 5.16862,-6.04484 0.63699,0.0096 0.30649,0.607236 -0.73443,1.328173 -2.72171,1.884994 -5.63553,10.474716 -5.63553,16.612961 0,4.943329 0.14356,5.200009 2.31633,4.141823 1.41101,-0.687186 2.31633,-0.729437 2.31633,-0.108103 0,0.560995 -1.04235,1.321048 -2.31633,1.689004 -2.10072,0.606739 -2.31633,1.594638 -2.31633,10.613398 l 0,9.944386 4.18834,-4.21877 c 3.22214,-3.245528 5.04135,-4.218773 7.88582,-4.218773 z m -13.32374,-0.263483 c -0.0503,-3.622898 -0.35538,-5.991295 -0.678,-5.263103 -0.32261,0.72819 -0.93294,1.128666 -1.35627,0.889945 -1.00848,-0.568688 -0.73416,8.253354 0.30419,9.782232 1.4962,2.203028 1.82162,1.185591 1.73008,-5.409074 z m -4.54122,-2.898319 c 0,-1.090907 0.52117,-2.276583 1.15816,-2.634835 1.40882,-0.792336 1.54164,-5.45657 0.17722,-6.223928 -0.5395,-0.303431 -2.49391,0.915725 -4.3431,2.709234 -2.79394,2.70979 -2.93015,3.057527 -0.80592,2.057468 1.40595,-0.661902 3.08391,-2.027615 3.72881,-3.034918 1.1055,-1.726715 1.17457,-1.723943 1.20777,0.04847 0.0198,1.054348 -1.75677,2.842077 -4.04532,4.070834 l -4.080537,2.190904 2.492777,1.967411 c 2.81212,2.219437 4.51014,1.786234 4.51014,-1.150641 z M 111.0465,64.26458 c -0.31726,-0.713547 -0.55751,0.125452 -0.5339,1.864443 0.0236,1.738991 0.28317,2.322803 0.57681,1.297359 0.29364,-1.025443 0.27433,-2.448254 -0.0429,-3.161802 z M 19.394429,57.417928 c 2.862301,-1.875466 5.544321,-11.894479 3.161385,-11.809724 -0.477743,0.01699 -2.610816,1.472447 -4.740149,3.234344 -3.612247,2.988915 -3.777355,3.410338 -2.465363,6.29271 1.467476,3.223952 2.07996,3.569661 4.044127,2.28267 z M 94.535178,11.559334 C 97.656097,9.7489268 99.691803,8.1106243 99.05897,7.9186619 97.760413,7.5247646 89.744845,10.710661 83.649018,14.043561 L 79.59544,16.259858 84.2281,15.55542 c 2.547963,-0.387441 7.186147,-2.18568 10.307078,-3.996086 z"
     id="path3049"
     style="fill:#000000" />
</svg>
