<?xml version="1.0" encoding="UTF-8" standalone="no"?>
<!-- Created with Inkscape (http://www.inkscape.org/) -->

<svg
   xmlns:dc="http://purl.org/dc/elements/1.1/"
   xmlns:cc="http://creativecommons.org/ns#"
   xmlns:rdf="http://www.w3.org/1999/02/22-rdf-syntax-ns#"
   xmlns:svg="http://www.w3.org/2000/svg"
   xmlns="http://www.w3.org/2000/svg"
   version="1.1"
   width="533"
   height="318"
   id="svg3051">
  <metadata
     id="metadata3057">
    <rdf:RDF>
      <cc:Work
         rdf:about="">
        <dc:format>image/svg+xml</dc:format>
        <dc:type
           rdf:resource="http://purl.org/dc/dcmitype/StillImage" />
        <dc:title></dc:title>
      </cc:Work>
    </rdf:RDF>
  </metadata>
  <defs
     id="defs3055" />
  <path
     d="m 431.3628,318.82839 c -0.56169,-1.02132 -1.08988,-7.0753 -1.17376,-13.45329 l -0.15249,-11.59635 -5.79889,-0.29671 c -5.17134,-0.2646 -5.83532,-0.54702 -6.13574,-2.60976 -0.18528,-1.27218 2.97316,-12.89684 7.01874,-25.83258 l 7.35562,-23.51952 -0.0368,-21.53984 c -0.0203,-11.84691 -0.22639,-21.72433 -0.45811,-21.94983 -0.23173,-0.22549 -5.85855,5.22959 -12.50405,12.12241 -11.70902,12.14478 -12.21477,12.53241 -16.35136,12.53241 -5.05664,0 -8.08609,-1.82996 -10.35441,-6.2547 -3.13768,-6.12051 -1.81309,-8.58476 17.07061,-31.75817 9.63026,-11.81792 18.16314,-21.63263 18.96194,-21.81045 0.79881,-0.17783 1.45238,-0.96533 1.45238,-1.75 0,-0.78468 0.69365,-1.42668 1.54144,-1.42668 0.84779,0 1.54144,-0.4181 1.54144,-0.9291 0,-2.33386 11.84573,-3.33104 28.3158,-2.38364 16.18107,0.93078 16.56325,1.00535 19.88927,3.88088 1.86514,1.61252 4.46455,4.95686 5.77645,7.43186 1.31189,2.475 7.50637,11.69916 13.76551,20.49813 6.25914,8.79897 11.38025,16.56147 11.38025,17.25 0,0.68853 0.68879,1.25187 1.53063,1.25187 3.07849,0 14.99743,5.2879 15.991,7.09449 0.78344,1.42452 0.53885,2.33058 -1.04529,3.87213 l -2.06805,2.01245 -5.40579,-2.09525 c -2.97319,-1.15238 -5.98384,-2.32082 -6.69033,-2.59652 -0.70844,-0.27646 -1.28454,0.21944 -1.28454,1.10571 0,0.88385 -0.46243,1.60699 -1.02763,1.60699 -0.56519,0 -1.02762,1.125 -1.02762,2.5 0,1.55556 -0.58233,2.5 -1.54144,2.5 -0.8478,0 -1.53778,0.5625 -1.53329,1.25 0.022,3.37942 5.98119,28.4155 13.4348,56.44331 4.56248,17.15632 8.14422,32.23132 7.95942,33.5 -0.49013,3.36468 -5.58138,3.81761 -6.99512,0.6223 -1.80043,-4.06925 -17.32827,-63.8285 -20.0897,-77.31561 -2.46225,-12.02591 -3.06132,-13.59508 -7.99517,-20.94175 l -5.33348,-7.94175 -0.2819,16.72362 -0.28191,16.72361 7.27341,23.10156 c 4.00038,12.70585 7.13305,24.27901 6.96148,25.71813 -0.29797,2.49947 -0.6224,2.62981 -7.24842,2.91227 l -6.93648,0.29569 0,11.75431 c 0,7.80891 -0.41392,12.1571 -1.23315,12.95431 -1.65838,1.61379 -10.55842,1.53805 -11.95693,-0.10175 -0.63387,-0.74323 -1.17621,-6.32093 -1.26404,-13 l -0.15383,-11.69825 -14.27619,0 -14.2762,0 0,11.56574 c 0,6.36116 -0.4787,12.43616 -1.06378,13.5 -1.51863,2.76131 -11.7354,2.82096 -13.24432,0.0773 z m -328.62258,0.0747 c -0.68457,-0.43334 -1.95626,-2.44517 -2.825971,-4.47073 -1.383803,-3.22282 -1.581302,-14.98993 -1.581302,-94.21491 0,-49.79267 -0.209071,-90.53212 -0.464621,-90.53212 -0.25554,0 -10.775873,5.55553 -23.378517,12.34563 -49.547019,26.69511 -53.566963,28.65437 -58.791933,28.65437 -8.8747108,0 -13.961876,-4.48781 -13.961876,-12.31693 0,-4.73502 3.1007825,-10.35848 6.7104152,-12.16976 1.1134339,-0.5587 8.2672498,-4.65528 15.8973808,-9.1035 7.630131,-4.44822 17.803639,-10.25158 22.607796,-12.89635 4.804157,-2.64477 20.295635,-11.4215 34.425508,-19.50384 14.129872,-8.082347 27.26259,-15.215917 29.18381,-15.852397 2.33879,-0.7748 13.65707,-1.15722 34.25008,-1.15722 l 30.75694,0 55.15349,25.056167 c 30.33441,13.78089 55.96273,25.98074 56.95182,27.11078 0.98909,1.13004 1.79835,3.12977 1.79835,4.44383 0,1.31407 0.46243,2.38922 1.02762,2.38922 1.39107,0 1.16241,5.69921 -0.40121,10 -1.45871,4.01224 -6.4266,6.996 -11.65223,6.99845 -2.88239,10e-4 -31.61984,-11.67708 -77.00992,-31.29558 -5.74742,-2.48415 -11.41222,-4.81387 -12.58843,-5.17714 l -2.13854,-0.66051 -0.006,90.31739 c -0.004,59.62206 -0.37007,91.59408 -1.07777,94.0739 -1.9038,6.67101 -4.05415,7.74349 -15.52591,7.74349 -9.9487,0 -10.07183,-0.0296 -11.5282,-2.77017 -3.20641,-6.03462 -3.71839,-14.62739 -3.71839,-62.41349 l 0,-47.81634 -9.50555,0.0137 c -5.22806,0.008 -10.54603,0.285 -11.81772,0.61664 l -2.31216,0.60297 -0.0317,46.13337 c -0.0332,48.22196 -0.72546,59.43471 -3.9289,63.63337 -1.79554,2.35338 -2.53391,2.51483 -12.58945,2.75284 -5.87511,0.13907 -11.24214,-0.1017 -11.92671,-0.53504 z M 150.74949,159.0859 c 3.66961,-3.07966 7.48508,-6.35838 8.47885,-7.28603 1.71906,-1.60471 1.53273,-2.45026 -3.83569,-17.40627 -3.10338,-8.64579 -6.57544,-17.49915 -7.71568,-19.67413 -1.14025,-2.17494 -2.07318,-4.66692 -2.07318,-5.5377 0,-0.87078 2.62393,-3.95992 5.83094,-6.86475 4.21154,-3.814697 5.6447,-5.753797 5.16034,-6.982097 -0.59861,-1.51799 -2.41088,-1.67101 -16.87794,-1.42509 l -16.20732,0.2755 -0.30738,2.57066 c -0.25678,2.14747 0.71637,3.269457 5.91149,6.815667 5.07489,3.46412 6.12097,4.64683 5.68661,6.42934 -0.29275,1.20138 -2.37747,11.16503 -4.63271,22.14145 -3.1947,15.54878 -3.81264,20.11384 -2.79754,20.66665 0.71658,0.39024 4.53424,3.21953 8.48366,6.28731 3.94943,3.06777 7.4154,5.58028 7.70216,5.58335 0.28676,0.003 3.52379,-2.51416 7.19339,-5.59382 z M 317.7896,314.46282 c -1.36765,-1.9001 -1.59971,-6.90481 -1.59971,-34.5 0,-17.75262 -0.20474,-32.27749 -0.45499,-32.27749 -0.25025,0 -5.409,3.375 -11.46389,7.5 -6.05488,4.125 -11.75886,7.5 -12.6755,7.5 -2.76211,0 -6.23443,-2.96856 -6.23443,-5.32995 0,-1.70038 3.92692,-5.07284 16.86307,-14.48205 9.27468,-6.74603 17.42387,-12.92307 18.1093,-13.72675 0.81035,-0.95017 3.17903,-1.46125 6.77235,-1.46125 l 5.52612,0 0,-5.40454 0,-5.40454 -5.57188,-3.06004 c -6.3041,-3.46216 -10.11147,-7.78691 -12.39143,-14.07528 -5.6218,-15.50548 6.23976,-32.4004 23.76457,-33.84887 18.49223,-1.52844 33.44206,16.66743 27.64597,33.64869 -2.08867,6.11934 -8.59918,13.03806 -14.75632,15.68156 -4.27459,1.83524 -4.30413,1.88433 -4.30413,7.15547 l 0,5.30755 7.37861,0 c 7.31029,0 7.53152,0.08 23.89233,8.64361 20.54343,10.75283 23.1933,12.60454 23.1933,16.20728 0,3.00973 -1.63815,5.14911 -3.94274,5.14911 -0.81204,0 -7.88725,-3.16545 -15.72269,-7.03433 l -14.24627,-7.03433 0,34.10007 c 0,21.5937 -0.39014,34.80947 -1.06377,36.03433 -0.88241,1.60445 -2.19038,1.93426 -7.67106,1.93426 -5.48067,0 -6.78864,-0.32981 -7.67105,-1.93426 -0.62658,-1.13932 -1.06378,-9.76985 -1.06378,-21 l 0,-19.06574 -8.22101,0 -8.22102,0 0,19.03518 c 0,23.12712 -0.30742,23.96482 -8.79475,23.96482 -4.49328,0 -5.76245,-0.39868 -7.0752,-2.22251 z M 444.12946,146.81587 c -12.17347,-5.66225 -19.02512,-15.40282 -19.81244,-28.16619 l -0.46485,-7.53565 -3.61767,0.41099 c -2.48038,0.28179 -3.39527,0.0608 -2.91022,-0.7029 0.4281,-0.67405 0.15387,-0.90717 -0.6945,-0.59037 -2.52289,0.9421 -4.12543,-3.88842 -3.6583,-11.027237 0.49996,-7.64073 1.2953,-8.48156 8.04378,-8.50387 l 4.63172,-0.0153 -0.35658,-4.36293 c -0.30489,-3.73042 0.11272,-4.88308 2.88056,-7.95072 1.92134,-2.12946 5.61373,-4.51229 9.08402,-5.86223 5.17211,-2.01197 7.62574,-2.27445 21.26126,-2.27445 13.673,0 16.08101,0.25916 21.31493,2.29398 3.24529,1.26169 7.33113,3.68613 9.07966,5.38765 2.82331,2.74741 3.14053,3.63515 2.83431,7.9318 l -0.34483,4.83815 4.84508,-6.3e-4 c 6.25967,-8e-4 7.4354,1.93586 7.08638,11.672657 -0.14642,4.0846 -4.59356,9.32673 -7.9123,9.32673 -2.35417,0 -2.47776,0.31167 -2.47853,6.25 -0.002,11.9936 -7.78905,23.27097 -19.92879,28.85968 -5.29017,2.43541 -7.56503,2.88874 -14.49591,2.88874 -6.93193,0 -9.18784,-0.44969 -14.38678,-2.86788 z M 131.98354,80.662433 c -10.82903,-2.6598 -20.29275,-10.38103 -25.09827,-20.4771 -2.41517,-5.07411 -2.85588,-7.31168 -2.85588,-14.500001 0,-7.085397 0.45128,-9.44448 2.71166,-14.175146 3.78805,-7.927903 10.10589,-14.215238 18.16262,-18.074921 6.06368,-2.904884 7.71362,-3.247634 15.54038,-3.228282 7.38002,0.01825 9.72562,0.458298 14.9222,2.799507 8.04553,3.624745 15.05003,10.412012 18.64677,18.068451 2.42058,5.152761 2.8719,7.442525 2.87967,14.610391 0.008,7.198354 -0.42791,9.418811 -2.84537,14.500001 -5.84546,12.28642 -17.66119,20.22805 -31.27543,21.02099 -3.81181,0.22201 -8.66656,-0.0227 -10.78835,-0.54389 z"
     id="path3213"
     style="fill:#000000" />
</svg>
