<?xml version="1.0" encoding="UTF-8" standalone="no"?>
<!-- Created with Inkscape (http://www.inkscape.org/) -->

<svg
   xmlns:dc="http://purl.org/dc/elements/1.1/"
   xmlns:cc="http://creativecommons.org/ns#"
   xmlns:rdf="http://www.w3.org/1999/02/22-rdf-syntax-ns#"
   xmlns:svg="http://www.w3.org/2000/svg"
   xmlns="http://www.w3.org/2000/svg"
   version="1.1"
   width="237"
   height="153"
   id="svg3027">
  <metadata
     id="metadata3033">
    <rdf:RDF>
      <cc:Work
         rdf:about="">
        <dc:format>image/svg+xml</dc:format>
        <dc:type
           rdf:resource="http://purl.org/dc/dcmitype/StillImage" />
        <dc:title></dc:title>
      </cc:Work>
    </rdf:RDF>
  </metadata>
  <defs
     id="defs3031" />
  <path
     d="m 53.513691,151.46467 c -0.480545,-1.37403 -1.789139,-17.0526 -2.90799,-34.84128 -1.440059,-22.89563 -2.375728,-32.328632 -3.20323,-32.293622 -7.276171,0.307801 -24.4943,3.873381 -27.124921,5.617114 -2.40774,1.595993 -3.465698,1.820741 -4.199787,0.892201 C 14.6301,89.007949 12.418516,81.702605 9.6167835,69.497055 8.250013,63.542811 5.8794043,56.128034 4.3487647,53.019783 L 1.5657845,47.368422 4.8017541,46.51883 c 1.7797827,-0.467273 6.0282009,-1.233384 9.4409289,-1.702465 3.412727,-0.469081 12.00803,-1.959959 19.100671,-3.313064 L 46.239064,39.043123 45.97555,20.024583 C 45.830617,9.5643859 45.785388,0.90562448 45.875037,0.78288805 c 0.08965,-0.12273642 1.58847,0.22596915 3.330707,0.77490145 l 3.167701,0.9980579 0.785612,17.1580866 0.785612,17.158088 10.511719,-0.89031 c 5.781447,-0.489677 13.801214,-1.765601 17.821704,-2.835402 9.066269,-2.412413 12.068539,-2.572927 14.638103,-0.782606 1.908302,1.329599 1.983754,2.167031 1.447634,16.065212 -0.456928,11.844693 -1.08395,16.142901 -3.262829,22.365829 l -2.697223,7.703356 -12.414549,1.2383 c -6.828008,0.681073 -15.005982,1.696505 -18.17328,2.256528 l -5.758722,1.018226 1.284824,28.061065 c 1.28465,28.05733 0.874575,38.4965 -1.624896,41.36472 -1.113849,1.27819 -1.471603,1.12031 -2.203463,-0.97227 z M 37.65018,78.74461 c 11.84254,-1.592966 10.930848,0.08365 10.078389,-18.534401 l -0.746134,-16.295896 -3.347958,0.747266 c -1.841376,0.410998 -6.596521,1.392458 -10.566987,2.181033 -3.970469,0.788584 -9.585779,2.041417 -12.478472,2.784085 l -5.259439,1.350297 3.106726,14.25981 c 1.708698,7.842892 3.127431,14.656887 3.152737,15.142209 0.02534,0.485325 2.020397,0.535256 4.433531,0.110937 2.413136,-0.424309 7.645558,-1.209712 11.627607,-1.745353 z m 21.397146,-2.402446 c 0.167106,-0.517247 5.854447,-2.220317 12.638536,-3.784604 8.869223,-2.045074 12.690451,-3.4067 13.600919,-4.846431 2.212517,-3.498659 4.727556,-15.836006 4.452578,-21.841751 -0.218999,-4.783023 -0.623293,-5.897459 -2.313145,-6.376243 -2.288455,-0.648379 -28.744984,2.417009 -31.436699,3.642421 -1.513393,0.688976 -1.629205,2.81422 -0.955348,17.53154 0.628353,13.7235 1.03247,16.735588 2.238071,16.681501 0.809192,-0.03632 1.607981,-0.489198 1.775088,-1.006433 z m 74.569304,55.909766 c -0.43961,-1.04927 -0.39632,-10.31962 0.0962,-20.60078 0.97807,-20.418043 -0.50934,-71.41686 -2.45204,-84.07327 l -1.18121,-7.695304 4.40787,-1.383099 c 2.42434,-0.760703 9.53536,-1.90322 15.8023,-2.538926 16.74943,-1.699031 49.36329,-6.8264668 59.41076,-9.3403545 10.91132,-2.7300176 12.9595,-2.8327611 17.9104,-0.8984461 l 3.97359,1.5524842 2.68637,58.6712204 2.68635,58.671215 -3.11212,0.79937 c -1.71169,0.43965 -9.53946,0.79472 -17.39508,0.7891 -12.58051,-0.01 -41.56003,2.69805 -74.04041,6.91642 -7.06692,0.9178 -8.08631,0.81699 -8.79293,-0.8696 z m 43.93137,-9.6243 c 11.09704,-1.40026 23.65975,-3.17866 27.9171,-3.952 4.25735,-0.77334 11.12598,-1.47757 15.26365,-1.56493 4.13765,-0.0874 7.82659,-0.50721 8.19763,-0.93299 1.13745,-1.30526 -0.32139,-44.404432 -2.5409,-75.066505 l -2.10187,-29.037259 -5.1428,0.230718 c -7.84315,0.35186 -43.35433,5.062013 -56.70643,7.52146 -6.52718,1.202302 -14.07406,2.578445 -16.77085,3.058094 l -4.90323,0.87209 0.98128,21.43158 c 0.5397,11.787372 1.28142,34.744107 1.64825,51.014974 l 0.66699,29.583408 6.65736,-0.3063 c 3.66154,-0.16863 15.73676,-1.45202 26.83382,-2.85228 z m 2.33308,-15.46183 c 5.6173,-7.06154 12.91125,-17.796909 14.49495,-21.333936 0.82865,-1.850654 0.46096,-3.462718 -1.84609,-8.093901 -1.58445,-3.180624 -4.76232,-11.322786 -7.06193,-18.093674 -2.29959,-6.770875 -4.34175,-12.464423 -4.53811,-12.652307 -0.19635,-0.187892 -3.31299,0.29846 -6.92587,1.080781 -9.53178,2.063978 -19.78674,2.333786 -22.27844,0.586155 -2.64093,-1.852289 -2.38745,-1.954373 12.32209,-4.962054 15.93238,-3.257724 15.27862,-2.909532 14.24734,-7.588305 -0.47808,-2.169025 -2.10793,-6.485735 -3.62186,-9.592688 -3.17228,-6.51025 -2.49069,-7.539211 4.11601,-6.213781 3.83735,0.769846 3.94823,0.930438 6.26157,9.068785 l 2.35501,8.285055 5.91766,-0.91805 c 6.24699,-0.969153 10.48044,0.198354 10.60528,2.924741 0.0724,1.581741 -1.07638,2.16676 -7.1187,3.625155 -6.03273,1.456085 -7.19113,2.043023 -7.11951,3.607283 0.0847,1.851337 5.44164,17.176956 7.90897,22.626983 l 1.81073,3.999631 2.07613,-6.173184 c 2.47638,-7.363351 6.88375,-16.402598 8.02247,-16.453681 0.44755,-0.02007 1.91168,1.081515 3.25361,2.447999 l 2.43987,2.484508 -3.25352,7.636618 c -1.78944,4.200141 -4.16829,10.237319 -5.28634,13.41595 l -2.0328,5.779342 3.99311,5.18108 c 2.1962,2.849585 4.01814,5.727467 4.0487,6.39531 0.0305,0.667818 0.50103,1.194237 1.04547,1.169811 1.91074,-0.08573 11.93674,9.623544 12.02951,11.649464 0.28038,6.1234 -9.89605,1.89291 -19.29053,-8.019355 l -6.70587,-7.075517 -5.72506,7.028803 c -4.79557,5.887679 -15.57859,14.352349 -18.44716,14.481039 -0.40577,0.0182 1.53073,-2.8186 4.30331,-6.30406 z m -28.89049,-1.77269 c -2.22536,-1.95092 -3.82295,-3.75245 -3.55018,-4.00339 0.73712,-0.67821 36.17948,-11.206934 37.9332,-11.268671 0.94654,-0.03334 1.15716,0.342399 0.56663,1.010801 -1.61324,1.825912 -27.91901,17.6745 -29.45052,17.74321 -0.79916,0.0359 -3.27378,-1.53102 -5.49913,-3.48195 z m 7.02895,-20.352742 -4.80418,-0.110664 -1.55845,-7.606904 c -0.85715,-4.183795 -2.33405,-9.320092 -3.282,-11.413993 -0.94795,-2.093901 -1.48095,-4.085484 -1.18443,-4.425751 0.29651,-0.340257 2.66072,-0.125687 5.25376,0.476813 6.46028,1.501079 7.53117,1.341495 13.75764,-2.050174 4.745,-2.584688 5.79715,-2.803181 8.24694,-1.712604 3.79514,1.689505 5.02761,8.185006 2.65721,14.004569 -0.92302,2.266119 -1.6437,4.874108 -1.60151,5.795551 0.0422,0.921433 -0.39062,1.696301 -0.96182,1.721927 -0.5712,0.02563 -1.00865,0.699118 -0.97215,1.49666 0.0819,1.789353 -8.82311,3.979393 -15.55101,3.824502 z m 7.03959,-6.119739 c 3.51608,-1.466342 5.07031,-4.674519 4.82802,-9.965844 -0.16562,-3.6175 -0.20506,-3.626357 -7.4033,-1.665989 -4.6861,1.276206 -5.20266,1.699283 -4.57682,3.748563 0.38801,1.270508 0.78471,3.90091 0.88156,5.845357 0.19444,3.903408 1.09531,4.196195 6.27054,2.037913 z m 40.33914,-47.542582 c -6.08416,-6.117023 -7.85686,-9.389163 -5.14563,-9.498108 1.99823,-0.08027 16.43481,11.337904 16.10999,12.741757 -0.32766,1.41624 -2.1628,2.938588 -3.6526,3.030052 -0.55556,0.03404 -3.84585,-2.789064 -7.31176,-6.273701 z"
     id="path3037"
     style="fill:#000000" />
</svg>
