<?xml version="1.0" encoding="UTF-8" standalone="no"?>
<!-- Created with Inkscape (http://www.inkscape.org/) -->

<svg
   xmlns:dc="http://purl.org/dc/elements/1.1/"
   xmlns:cc="http://creativecommons.org/ns#"
   xmlns:rdf="http://www.w3.org/1999/02/22-rdf-syntax-ns#"
   xmlns:svg="http://www.w3.org/2000/svg"
   xmlns="http://www.w3.org/2000/svg"
   version="1.1"
   width="302"
   height="213"
   id="svg3063">
  <metadata
     id="metadata3069">
    <rdf:RDF>
      <cc:Work
         rdf:about="">
        <dc:format>image/svg+xml</dc:format>
        <dc:type
           rdf:resource="http://purl.org/dc/dcmitype/StillImage" />
        <dc:title></dc:title>
      </cc:Work>
    </rdf:RDF>
  </metadata>
  <defs
     id="defs3067" />
  <path
     d="m 235.65254,210.58505 c -1.60163,-0.98318 -1.75,-3.52875 -1.75,-30.02457 l 0,-28.95031 -12.06127,0 -12.06128,0 0.70845,-4.75 c 0.38964,-2.6125 1.54222,-6.69981 2.56127,-9.08291 1.01906,-2.38309 1.85283,-5.17871 1.85283,-6.21248 0,-1.03377 0.87361,-4.25897 1.94135,-7.1671 1.06774,-2.90813 2.24376,-6.97998 2.61336,-9.04856 0.36961,-2.06857 1.03185,-3.98343 1.47164,-4.25524 0.43979,-0.2718 1.09665,-2.40433 1.45969,-4.73895 0.36303,-2.33462 1.49011,-6.494763 2.50463,-9.244763 1.01452,-2.75 2.58304,-7.925 3.48561,-11.5 0.90256,-3.575 2.05681,-7.82032 2.56498,-9.43405 1.08925,-3.45896 0.72463,-4.09394 -1.60288,-2.7914 -1.87273,1.04803 -6.33398,10.56884 -6.39822,13.65451 -0.0445,2.1356 -3.25593,13.319703 -6.05044,21.070943 -0.99144,2.75 -2.1008,6.32721 -2.46525,7.94936 -0.65005,2.89331 -4.7062,7.55064 -6.57599,7.55064 -0.52166,0 -1.90485,-0.95637 -3.07374,-2.12526 -1.89673,-1.89673 -2.05343,-2.82643 -1.45723,-8.64567 0.36742,-3.58622 1.09492,-7.31803 1.61666,-8.29292 0.52175,-0.97489 1.59799,-4.17184 2.39166,-7.104333 0.79367,-2.9325 1.89269,-6.68182 2.44227,-8.33182 0.54958,-1.65 1.99011,-6.375 3.20119,-10.5 1.21107,-4.125 3.04092,-9.40759 4.06633,-11.739099 1.02541,-2.331505 1.86438,-4.639744 1.86438,-5.129418 0,-0.489674 1.69039,-2.632078 3.75642,-4.760898 4.68893,-4.831426 11.15027,-6.370582 26.74358,-6.370582 15.59331,0 22.05465,1.539156 26.74358,6.370582 2.06603,2.12882 3.75642,4.271224 3.75642,4.760898 0,0.489674 0.84345,2.797913 1.87433,5.129418 2.20166,4.979409 5.12567,14.345599 5.12567,16.418559 0,0.79738 0.82622,3.5582 1.83604,6.13516 3.70697,9.45978 6.20426,18.277573 6.80549,24.029783 0.53923,5.15911 0.34982,6.16425 -1.51255,8.02662 -1.17094,1.17094 -2.5558,2.12898 -3.07746,2.12898 -1.86979,0 -5.92594,-4.65733 -6.57599,-7.55064 -0.36445,-1.62215 -1.47381,-5.19936 -2.46525,-7.94936 -2.65512,-7.3646 -6.01028,-18.913193 -6.01028,-20.687593 0,-4.56355 -5.68071,-14.81241 -8.21018,-14.81241 -1.31715,0 2.08801,13.18836 6.33075,24.51933 1.03369,2.76063 1.87943,5.653913 1.87943,6.429503 0,1.30921 0.96681,4.61004 6.05787,20.68244 1.06817,3.3722 1.94213,6.86581 1.94213,7.76357 0,0.89776 0.43544,2.41369 0.96765,3.36873 0.93455,1.67702 4.03235,13.44428 4.03235,15.3172 0,0.50791 -5.36957,0.91923 -12,0.91923 l -12,0 0,29.02144 0,29.02144 -2.42347,1.10421 c -1.33291,0.60731 -3.97871,0.81244 -5.87955,0.45584 -2.8605,-0.53663 -3.56299,-1.18296 -4.07652,-3.75065 -0.34125,-1.70625 -0.62046,-14.97103 -0.62046,-29.47728 l 0,-26.375 -2.44368,0 -2.44368,0 -0.30632,28.91825 c -0.16848,15.90504 -0.60666,29.21788 -0.97373,29.58408 -1.22992,1.227 -8.31279,1.55896 -10.08259,0.47255 z m -192.749998,-28.97488 0,-28 -8.5,0 c -5.304852,0 -8.5,-0.39727 -8.5,-1.05686 0,-0.84251 9.25018,-43.57561 11.676754,-53.943143 0.343924,-1.46942 -2.715993,1.852193 -7.422793,8.057603 -8.513284,11.22385 -13.300887,15.9424 -16.175699,15.9424 -3.970454,0 -7.7819634,-7.5426 -6.1611003,-12.19221 1.3392142,-3.84168 25.3909403,-38.097363 30.9254693,-44.045624 8.233921,-8.849446 19.321363,-12.07346 30.462893,-8.858023 6.523823,1.882771 15.039093,10.382546 25.141606,25.095854 18.863798,27.473263 18.552868,26.951543 18.552868,31.130643 0,4.06087 -3.3683,8.87381 -6.20455,8.86562 -2.12068,-0.006 -7.81533,-3.8724 -8.472105,-5.75198 -0.335222,-0.95936 -2.052666,-3.31928 -3.816543,-5.24428 -1.763876,-1.925 -5.112345,-6.2 -7.441041,-9.5 l -4.233993,-6.000003 0.721619,5.000003 c 0.396891,2.75 1.357792,7.025 2.135337,9.5 0.777544,2.475 1.806281,6.75 2.286082,9.5 0.479801,2.75 2.256753,11.25846 3.948781,18.9077 1.692028,7.64923 3.076415,14.06173 3.076415,14.25 0,0.18826 -3.817882,0.3423 -8.484181,0.3423 l -8.484182,0 -0.265818,27.75 -0.265819,27.75 -7.5,0 -7.5,0 -0.265942,-27.82025 c -0.246422,-25.77818 -0.393227,-27.79577 -2,-27.4867 -1.587991,0.30545 -1.756449,2.66994 -1.999877,28.07025 l -0.265818,27.7367 -7.484182,0 -7.484181,0 0,-28 z m 102.999998,7.98268 0,-20.11275 -6.42968,0.30202 c -3.53633,0.16611 -6.65494,0.0768 -6.93026,-0.19855 -0.27531,-0.27532 1.71805,-9.25092 4.42969,-19.94579 2.71164,-10.69487 4.93025,-19.57755 4.93025,-19.73929 0,-0.16175 -1.66243,1.61971 -3.6943,3.9588 -9.29669,10.70237 -12.72617,13.75288 -15.4614,13.75288 -1.68841,0 -3.32515,-0.84842 -4.2876,-2.22251 -2.77395,-3.96037 -3.02124,-3.45354 9.93737,-20.36723 9.65185,-12.59767 16.18777,-19.1075 22.07693,-21.98879 4.8918,-2.39334 6.09098,-2.58446 12.17757,-1.94083 8.48624,0.89739 13.13788,4.19957 22.87612,16.23965 3.78142,4.67525 9.01281,11.10418 11.62531,14.2865 4.29037,5.22617 4.75,6.2799 4.75,10.88963 l 0,5.10358 -3.61765,0 c -3.88435,0 -5.98515,-1.73796 -15.58339,-12.89188 l -4.63985,-5.39188 4.89504,19.39188 c 2.69227,10.66553 4.90669,19.84188 4.92093,20.39188 0.0148,0.57047 -2.87368,1 -6.7246,1 l -6.75048,0 -0.27114,19.75 -0.27114,19.75 -5.95772,0 -5.95772,0 -0.27114,-19.66743 c -0.19937,-14.46174 -0.59633,-19.77562 -1.49975,-20.0762 -0.93797,-0.31208 -1.2928,4.28126 -1.5,19.41743 l -0.27139,19.8262 -6.25,0.29772 -6.25,0.29771 0,-20.11275 z m 7.5,-92.484833 c -2.2,-0.77789 -5.43492,-2.97144 -7.18871,-4.87453 l -3.1887,-3.46018 -4.8081,3.41843 c -2.64445,1.88014 -5.13789,3.41843 -5.54097,3.41843 -0.68562,0 -5.13161,-7.90603 -4.54384,-8.08002 0.14867,-0.044 2.97032,-0.83377 6.27032,-1.75503 l 6,-1.675 0.61503,-5.03364 c 0.77949,-6.37953 3.00525,-10.688976 7.13392,-13.812436 7.83624,-5.928344 18.01583,-5.379089 24.72922,1.3343 3.82823,3.828226 6.69975,11.321456 5.74203,14.983796 -0.45629,1.74485 0.3816,2.28147 6.32699,4.05209 l 6.85294,2.04089 -2.04884,3.47253 c -1.12686,1.90989 -2.68329,3.47252 -3.45872,3.47252 -0.77544,0 -3.29493,-1.36551 -5.59887,-3.03448 l -4.18898,-3.03448 -2.47283,3.1597 c -2.85401,3.64674 -9.28498,6.87518 -13.63189,6.84341 -1.65,-0.0121 -4.8,-0.6584 -7,-1.4363 z M 50.402542,50.71032 C 32.498379,42.403117 32.455764,17.3148 50.331679,8.9909389 56.850665,5.9553929 62.944945,5.9509619 69.443407,8.9770389 78.098491,13.007371 82.919413,20.488194 82.88058,29.82805 82.84251,38.984766 77.121987,47.540385 68.684661,51.059488 63.668875,53.151508 55.320281,52.992059 50.402542,50.710319 z M 242.64856,42.765129 c -6.03067,-2.854994 -8.74602,-7.403922 -8.74602,-14.651892 0,-5.814102 0.19808,-6.308438 4.11172,-10.261202 4.47935,-4.524126 9.71108,-6.060494 16.37831,-4.809714 7.31437,1.372184 12.16368,9.278093 11.04413,18.005412 -1.3824,10.776372 -12.5962,16.542381 -22.78814,11.717396 z"
     id="path3073"
     style="fill:#000000" />
</svg>
